<mxfile host="app.diagrams.net" modified="2022-11-01T04:42:58.195Z" agent="5.0 (Windows NT 10.0; Win64; x64) AppleWebKit/537.36 (KHTML, like Gecko) Chrome/106.0.0.0 Safari/537.36" etag="UIFUTsn07BondIE0tGGo" version="20.4.1" type="github">
  <diagram id="bmAyFkQDynYv9GnLA3v7" name="Page-1">
    <mxGraphModel dx="782" dy="379" grid="1" gridSize="10" guides="1" tooltips="1" connect="1" arrows="1" fold="1" page="1" pageScale="1" pageWidth="850" pageHeight="1100" math="0" shadow="0">
      <root>
        <mxCell id="0" />
        <mxCell id="1" parent="0" />
        <mxCell id="hOvcuM3Gdlnbof2sq8FK-6" value="" style="endArrow=block;html=1;rounded=0;endFill=0;" parent="1" edge="1">
          <mxGeometry width="50" height="50" relative="1" as="geometry">
            <mxPoint x="70" y="280" as="sourcePoint" />
            <mxPoint x="120" y="220" as="targetPoint" />
          </mxGeometry>
        </mxCell>
        <mxCell id="hOvcuM3Gdlnbof2sq8FK-7" value="" style="endArrow=block;html=1;rounded=0;endFill=0;" parent="1" edge="1">
          <mxGeometry width="50" height="50" relative="1" as="geometry">
            <mxPoint x="70" y="460" as="sourcePoint" />
            <mxPoint x="120" y="240" as="targetPoint" />
          </mxGeometry>
        </mxCell>
        <mxCell id="hOvcuM3Gdlnbof2sq8FK-8" value="Payment Processing System" style="text;html=1;align=center;verticalAlign=middle;resizable=0;points=[];autosize=1;strokeColor=none;fillColor=none;" parent="1" vertex="1">
          <mxGeometry x="670" y="580" width="180" height="30" as="geometry" />
        </mxCell>
        <mxCell id="hOvcuM3Gdlnbof2sq8FK-11" value="Actor" style="shape=umlActor;verticalLabelPosition=bottom;verticalAlign=top;html=1;outlineConnect=0;align=center;fontStyle=0;fontColor=#FFFFFF;labelBorderColor=#FFFFFF;labelBackgroundColor=default;" parent="1" vertex="1">
          <mxGeometry x="730" y="610" width="30" height="60" as="geometry" />
        </mxCell>
        <mxCell id="hOvcuM3Gdlnbof2sq8FK-12" value="Actor" style="shape=umlActor;verticalLabelPosition=bottom;verticalAlign=top;html=1;outlineConnect=0;align=center;fontStyle=0;fontColor=#FFFFFF;labelBorderColor=#FFFFFF;labelBackgroundColor=default;" parent="1" vertex="1">
          <mxGeometry x="30" y="430" width="30" height="60" as="geometry" />
        </mxCell>
        <mxCell id="hOvcuM3Gdlnbof2sq8FK-13" value="Actor" style="shape=umlActor;verticalLabelPosition=bottom;verticalAlign=top;html=1;outlineConnect=0;align=center;fontStyle=0;fontColor=#FFFFFF;labelBorderColor=#FFFFFF;labelBackgroundColor=default;" parent="1" vertex="1">
          <mxGeometry x="30" y="270" width="30" height="60" as="geometry" />
        </mxCell>
        <mxCell id="hOvcuM3Gdlnbof2sq8FK-14" value="User" style="text;html=1;align=center;verticalAlign=middle;resizable=0;points=[];autosize=1;strokeColor=none;fillColor=none;" parent="1" vertex="1">
          <mxGeometry x="120" y="150" width="50" height="30" as="geometry" />
        </mxCell>
        <mxCell id="hOvcuM3Gdlnbof2sq8FK-15" value="Actor" style="shape=umlActor;verticalLabelPosition=bottom;verticalAlign=top;html=1;outlineConnect=0;align=center;fontStyle=0;fontColor=#FFFFFF;labelBorderColor=#FFFFFF;labelBackgroundColor=default;" parent="1" vertex="1">
          <mxGeometry x="130" y="180" width="30" height="60" as="geometry" />
        </mxCell>
        <mxCell id="hOvcuM3Gdlnbof2sq8FK-16" value="Customer" style="text;html=1;align=center;verticalAlign=middle;resizable=0;points=[];autosize=1;strokeColor=none;fillColor=none;" parent="1" vertex="1">
          <mxGeometry x="5" y="240" width="80" height="30" as="geometry" />
        </mxCell>
        <mxCell id="hOvcuM3Gdlnbof2sq8FK-17" value="Parking Attendant" style="text;html=1;align=center;verticalAlign=middle;resizable=0;points=[];autosize=1;strokeColor=none;fillColor=none;" parent="1" vertex="1">
          <mxGeometry y="490" width="120" height="30" as="geometry" />
        </mxCell>
        <mxCell id="hOvcuM3Gdlnbof2sq8FK-18" value="UC - 4 Login" style="ellipse;whiteSpace=wrap;html=1;labelBackgroundColor=#3399FF;labelBorderColor=#3399FF;fillColor=#3399FF;strokeColor=#6c8ebf;" parent="1" vertex="1">
          <mxGeometry x="210" y="160" width="120" height="60" as="geometry" />
        </mxCell>
        <mxCell id="hOvcuM3Gdlnbof2sq8FK-19" value="" style="swimlane;startSize=0;labelBackgroundColor=#FFFFFF;labelBorderColor=#FFFFFF;fontColor=#FFFFFF;fillColor=#3399FF;rounded=1;" parent="1" vertex="1">
          <mxGeometry x="180" y="100" width="500" height="660" as="geometry" />
        </mxCell>
        <mxCell id="hOvcuM3Gdlnbof2sq8FK-20" value="Car Park Management System" style="text;html=1;align=center;verticalAlign=middle;resizable=0;points=[];autosize=1;strokeColor=none;fillColor=none;" parent="hOvcuM3Gdlnbof2sq8FK-19" vertex="1">
          <mxGeometry x="150" y="10" width="190" height="30" as="geometry" />
        </mxCell>
        <mxCell id="hOvcuM3Gdlnbof2sq8FK-21" value="Register vehicle" style="ellipse;whiteSpace=wrap;html=1;labelBackgroundColor=#3399FF;labelBorderColor=#3399FF;fillColor=#3399FF;strokeColor=#6c8ebf;" parent="hOvcuM3Gdlnbof2sq8FK-19" vertex="1">
          <mxGeometry x="190" y="50" width="120" height="60" as="geometry" />
        </mxCell>
        <mxCell id="hOvcuM3Gdlnbof2sq8FK-22" value="Register e wallet account" style="ellipse;whiteSpace=wrap;html=1;labelBackgroundColor=#3399FF;labelBorderColor=#3399FF;fillColor=#3399FF;strokeColor=#6c8ebf;" parent="hOvcuM3Gdlnbof2sq8FK-19" vertex="1">
          <mxGeometry x="330" y="110" width="150" height="60" as="geometry" />
        </mxCell>
        <mxCell id="hOvcuM3Gdlnbof2sq8FK-23" value="UC-1 register account extension points register vehicle &lt;br&gt;register e wallet account&amp;nbsp;&lt;br&gt;manage credit card info" style="ellipse;whiteSpace=wrap;html=1;labelBackgroundColor=#3399FF;labelBorderColor=#3399FF;fillColor=#3399FF;strokeColor=#6c8ebf;spacing=18;" parent="hOvcuM3Gdlnbof2sq8FK-19" vertex="1">
          <mxGeometry x="30" y="160" width="260" height="130" as="geometry" />
        </mxCell>
        <mxCell id="hOvcuM3Gdlnbof2sq8FK-24" value="Manage credit card&amp;nbsp;&lt;br&gt;info" style="ellipse;whiteSpace=wrap;html=1;labelBackgroundColor=#3399FF;labelBorderColor=#3399FF;fillColor=#3399FF;strokeColor=#6c8ebf;" parent="hOvcuM3Gdlnbof2sq8FK-19" vertex="1">
          <mxGeometry x="350" y="210" width="130" height="60" as="geometry" />
        </mxCell>
        <mxCell id="hOvcuM3Gdlnbof2sq8FK-25" value="UC-2 manage user account" style="ellipse;whiteSpace=wrap;html=1;labelBackgroundColor=#3399FF;labelBorderColor=#3399FF;fillColor=#3399FF;strokeColor=#6c8ebf;" parent="hOvcuM3Gdlnbof2sq8FK-19" vertex="1">
          <mxGeometry x="50" y="310" width="160" height="60" as="geometry" />
        </mxCell>
        <mxCell id="hOvcuM3Gdlnbof2sq8FK-26" value="UC-3 manage payment by cash" style="ellipse;whiteSpace=wrap;html=1;labelBackgroundColor=#3399FF;labelBorderColor=#3399FF;fillColor=#3399FF;strokeColor=#6c8ebf;" parent="hOvcuM3Gdlnbof2sq8FK-19" vertex="1">
          <mxGeometry x="50" y="390" width="180" height="60" as="geometry" />
        </mxCell>
        <mxCell id="hOvcuM3Gdlnbof2sq8FK-27" value="calculate total fee" style="ellipse;whiteSpace=wrap;html=1;labelBackgroundColor=#3399FF;labelBorderColor=#3399FF;fillColor=#3399FF;strokeColor=#6c8ebf;" parent="hOvcuM3Gdlnbof2sq8FK-19" vertex="1">
          <mxGeometry x="310" y="410" width="180" height="60" as="geometry" />
        </mxCell>
        <mxCell id="hOvcuM3Gdlnbof2sq8FK-28" value="UC-20 pay by e-payment" style="ellipse;whiteSpace=wrap;html=1;labelBackgroundColor=#3399FF;labelBorderColor=#3399FF;fillColor=#3399FF;strokeColor=#6c8ebf;" parent="hOvcuM3Gdlnbof2sq8FK-19" vertex="1">
          <mxGeometry x="50" y="470" width="180" height="60" as="geometry" />
        </mxCell>
        <mxCell id="hOvcuM3Gdlnbof2sq8FK-29" value="pay by e-wallet" style="ellipse;whiteSpace=wrap;html=1;labelBackgroundColor=#3399FF;labelBorderColor=#3399FF;fillColor=#3399FF;strokeColor=#6c8ebf;" parent="hOvcuM3Gdlnbof2sq8FK-19" vertex="1">
          <mxGeometry x="50" y="580" width="160" height="60" as="geometry" />
        </mxCell>
        <mxCell id="hOvcuM3Gdlnbof2sq8FK-30" value="pay by credit card" style="ellipse;whiteSpace=wrap;html=1;labelBackgroundColor=#3399FF;labelBorderColor=#3399FF;fillColor=#3399FF;strokeColor=#6c8ebf;" parent="hOvcuM3Gdlnbof2sq8FK-19" vertex="1">
          <mxGeometry x="245" y="580" width="160" height="60" as="geometry" />
        </mxCell>
        <mxCell id="hOvcuM3Gdlnbof2sq8FK-32" value="" style="endArrow=classic;html=1;rounded=0;" parent="hOvcuM3Gdlnbof2sq8FK-19" edge="1">
          <mxGeometry width="50" height="50" relative="1" as="geometry">
            <mxPoint x="110" y="570" as="sourcePoint" />
            <mxPoint x="120" y="530" as="targetPoint" />
            <Array as="points">
              <mxPoint x="110" y="570" />
            </Array>
          </mxGeometry>
        </mxCell>
        <mxCell id="hOvcuM3Gdlnbof2sq8FK-33" value="" style="endArrow=classic;html=1;rounded=0;exitX=0.569;exitY=-0.028;exitDx=0;exitDy=0;exitPerimeter=0;entryX=0.963;entryY=0.75;entryDx=0;entryDy=0;entryPerimeter=0;" parent="hOvcuM3Gdlnbof2sq8FK-19" source="hOvcuM3Gdlnbof2sq8FK-30" target="hOvcuM3Gdlnbof2sq8FK-28" edge="1">
          <mxGeometry width="50" height="50" relative="1" as="geometry">
            <mxPoint x="220" y="590" as="sourcePoint" />
            <mxPoint x="230" y="520" as="targetPoint" />
          </mxGeometry>
        </mxCell>
        <mxCell id="hOvcuM3Gdlnbof2sq8FK-34" value="" style="endArrow=none;html=1;rounded=0;fontColor=#FFFFFF;" parent="hOvcuM3Gdlnbof2sq8FK-19" target="hOvcuM3Gdlnbof2sq8FK-11" edge="1">
          <mxGeometry width="50" height="50" relative="1" as="geometry">
            <mxPoint x="245" y="500" as="sourcePoint" />
            <mxPoint x="295" y="450" as="targetPoint" />
          </mxGeometry>
        </mxCell>
        <mxCell id="hOvcuM3Gdlnbof2sq8FK-40" value="" style="html=1;labelBackgroundColor=#ffffff;startArrow=none;startFill=0;startSize=6;endArrow=classic;endFill=1;endSize=6;jettySize=auto;orthogonalLoop=1;strokeWidth=1;dashed=1;fontSize=14;rounded=0;fontColor=#FFFFFF;exitX=0;exitY=0.5;exitDx=0;exitDy=0;entryX=1;entryY=0.5;entryDx=0;entryDy=0;" parent="hOvcuM3Gdlnbof2sq8FK-19" source="hOvcuM3Gdlnbof2sq8FK-24" target="hOvcuM3Gdlnbof2sq8FK-23" edge="1">
          <mxGeometry width="60" height="60" relative="1" as="geometry">
            <mxPoint x="190" y="400" as="sourcePoint" />
            <mxPoint x="250" y="340" as="targetPoint" />
          </mxGeometry>
        </mxCell>
        <mxCell id="hOvcuM3Gdlnbof2sq8FK-41" value="" style="html=1;labelBackgroundColor=#ffffff;startArrow=none;startFill=0;startSize=6;endArrow=classic;endFill=1;endSize=6;jettySize=auto;orthogonalLoop=1;strokeWidth=1;dashed=1;fontSize=14;rounded=0;fontColor=#FFFFFF;exitX=0;exitY=0.5;exitDx=0;exitDy=0;" parent="hOvcuM3Gdlnbof2sq8FK-19" source="hOvcuM3Gdlnbof2sq8FK-22" edge="1">
          <mxGeometry width="60" height="60" relative="1" as="geometry">
            <mxPoint x="340" y="175" as="sourcePoint" />
            <mxPoint x="250" y="180" as="targetPoint" />
          </mxGeometry>
        </mxCell>
        <mxCell id="hOvcuM3Gdlnbof2sq8FK-42" value="" style="html=1;labelBackgroundColor=#ffffff;startArrow=none;startFill=0;startSize=6;endArrow=classic;endFill=1;endSize=6;jettySize=auto;orthogonalLoop=1;strokeWidth=1;dashed=1;fontSize=14;rounded=0;fontColor=#FFFFFF;exitX=0.5;exitY=1;exitDx=0;exitDy=0;entryX=0.626;entryY=0.013;entryDx=0;entryDy=0;entryPerimeter=0;" parent="hOvcuM3Gdlnbof2sq8FK-19" source="hOvcuM3Gdlnbof2sq8FK-21" target="hOvcuM3Gdlnbof2sq8FK-23" edge="1">
          <mxGeometry width="60" height="60" relative="1" as="geometry">
            <mxPoint x="185" y="140" as="sourcePoint" />
            <mxPoint x="115" y="125" as="targetPoint" />
          </mxGeometry>
        </mxCell>
        <mxCell id="hOvcuM3Gdlnbof2sq8FK-44" value="" style="html=1;labelBackgroundColor=#ffffff;startArrow=none;startFill=0;startSize=6;endArrow=classic;endFill=1;endSize=6;jettySize=auto;orthogonalLoop=1;strokeWidth=1;dashed=1;fontSize=14;rounded=0;fontColor=#FFFFFF;exitX=0;exitY=1;exitDx=0;exitDy=0;entryX=1;entryY=0;entryDx=0;entryDy=0;" parent="hOvcuM3Gdlnbof2sq8FK-19" source="hOvcuM3Gdlnbof2sq8FK-24" target="hOvcuM3Gdlnbof2sq8FK-28" edge="1">
          <mxGeometry width="60" height="60" relative="1" as="geometry">
            <mxPoint x="370" y="250" as="sourcePoint" />
            <mxPoint x="300" y="235" as="targetPoint" />
          </mxGeometry>
        </mxCell>
        <mxCell id="hOvcuM3Gdlnbof2sq8FK-45" value="" style="html=1;labelBackgroundColor=#ffffff;startArrow=none;startFill=0;startSize=6;endArrow=classic;endFill=1;endSize=6;jettySize=auto;orthogonalLoop=1;strokeWidth=1;dashed=1;fontSize=14;rounded=0;fontColor=#FFFFFF;exitX=0.996;exitY=0.372;exitDx=0;exitDy=0;exitPerimeter=0;entryX=0.085;entryY=0.761;entryDx=0;entryDy=0;entryPerimeter=0;" parent="hOvcuM3Gdlnbof2sq8FK-19" source="hOvcuM3Gdlnbof2sq8FK-28" target="hOvcuM3Gdlnbof2sq8FK-27" edge="1">
          <mxGeometry width="60" height="60" relative="1" as="geometry">
            <mxPoint x="360" y="465" as="sourcePoint" />
            <mxPoint x="320" y="400" as="targetPoint" />
          </mxGeometry>
        </mxCell>
        <mxCell id="hOvcuM3Gdlnbof2sq8FK-46" value="" style="html=1;labelBackgroundColor=#ffffff;startArrow=none;startFill=0;startSize=6;endArrow=classic;endFill=1;endSize=6;jettySize=auto;orthogonalLoop=1;strokeWidth=1;dashed=1;fontSize=14;rounded=0;fontColor=#FFFFFF;exitX=1;exitY=0.5;exitDx=0;exitDy=0;entryX=0;entryY=0.5;entryDx=0;entryDy=0;" parent="hOvcuM3Gdlnbof2sq8FK-19" source="hOvcuM3Gdlnbof2sq8FK-26" target="hOvcuM3Gdlnbof2sq8FK-27" edge="1">
          <mxGeometry width="60" height="60" relative="1" as="geometry">
            <mxPoint x="239.27999999999997" y="502.32000000000005" as="sourcePoint" />
            <mxPoint x="325.29999999999995" y="415.65999999999997" as="targetPoint" />
          </mxGeometry>
        </mxCell>
        <mxCell id="hOvcuM3Gdlnbof2sq8FK-47" value="&amp;lt;&amp;lt;extend&amp;gt;&amp;gt;" style="text;html=1;strokeColor=none;fillColor=none;align=center;verticalAlign=middle;whiteSpace=wrap;rounded=0;labelBackgroundColor=#FFFFFF;labelBorderColor=#FFFFFF;fontColor=#000000;" parent="hOvcuM3Gdlnbof2sq8FK-19" vertex="1">
          <mxGeometry x="240" y="120" width="60" height="30" as="geometry" />
        </mxCell>
        <mxCell id="hOvcuM3Gdlnbof2sq8FK-48" value="&amp;lt;&amp;lt;extend&amp;gt;&amp;gt;" style="text;html=1;strokeColor=none;fillColor=none;align=center;verticalAlign=middle;whiteSpace=wrap;rounded=0;labelBackgroundColor=#FFFFFF;labelBorderColor=#FFFFFF;fontColor=#000000;" parent="hOvcuM3Gdlnbof2sq8FK-19" vertex="1">
          <mxGeometry x="280" y="160" width="60" height="30" as="geometry" />
        </mxCell>
        <mxCell id="hOvcuM3Gdlnbof2sq8FK-49" value="&amp;lt;&amp;lt;extend&amp;gt;&amp;gt;" style="text;html=1;strokeColor=none;fillColor=none;align=center;verticalAlign=middle;whiteSpace=wrap;rounded=0;labelBackgroundColor=#FFFFFF;labelBorderColor=#FFFFFF;fontColor=#000000;" parent="hOvcuM3Gdlnbof2sq8FK-19" vertex="1">
          <mxGeometry x="290" y="250" width="50" height="20" as="geometry" />
        </mxCell>
        <mxCell id="hOvcuM3Gdlnbof2sq8FK-50" value="&amp;lt;&amp;lt;extend&amp;gt;&amp;gt;" style="text;html=1;strokeColor=none;fillColor=none;align=center;verticalAlign=middle;whiteSpace=wrap;rounded=0;labelBackgroundColor=#FFFFFF;labelBorderColor=#FFFFFF;fontColor=#000000;" parent="hOvcuM3Gdlnbof2sq8FK-19" vertex="1">
          <mxGeometry x="340" y="310" width="50" height="20" as="geometry" />
        </mxCell>
        <mxCell id="hOvcuM3Gdlnbof2sq8FK-51" value="&amp;lt;&amp;lt;include&amp;gt;&amp;gt;" style="text;html=1;strokeColor=none;fillColor=none;align=center;verticalAlign=middle;whiteSpace=wrap;rounded=0;labelBackgroundColor=#FFFFFF;labelBorderColor=#FFFFFF;fontColor=#000000;rotation=15;" parent="hOvcuM3Gdlnbof2sq8FK-19" vertex="1">
          <mxGeometry x="260" y="400" width="50" height="20" as="geometry" />
        </mxCell>
        <mxCell id="hOvcuM3Gdlnbof2sq8FK-52" value="&amp;lt;&amp;lt;include&amp;gt;&amp;gt;" style="text;html=1;strokeColor=none;fillColor=none;align=center;verticalAlign=middle;whiteSpace=wrap;rounded=0;labelBackgroundColor=#FFFFFF;labelBorderColor=#FFFFFF;fontColor=#000000;rotation=-15;" parent="hOvcuM3Gdlnbof2sq8FK-19" vertex="1">
          <mxGeometry x="245" y="450" width="50" height="20" as="geometry" />
        </mxCell>
        <mxCell id="hOvcuM3Gdlnbof2sq8FK-35" value="" style="endArrow=none;html=1;rounded=0;fontColor=#FFFFFF;entryX=0;entryY=0.5;entryDx=0;entryDy=0;" parent="1" target="hOvcuM3Gdlnbof2sq8FK-25" edge="1">
          <mxGeometry width="50" height="50" relative="1" as="geometry">
            <mxPoint x="85" y="470" as="sourcePoint" />
            <mxPoint x="135" y="420" as="targetPoint" />
          </mxGeometry>
        </mxCell>
        <mxCell id="hOvcuM3Gdlnbof2sq8FK-36" value="" style="endArrow=none;html=1;rounded=0;fontColor=#FFFFFF;entryX=0;entryY=0.5;entryDx=0;entryDy=0;" parent="1" target="hOvcuM3Gdlnbof2sq8FK-26" edge="1">
          <mxGeometry width="50" height="50" relative="1" as="geometry">
            <mxPoint x="90" y="470" as="sourcePoint" />
            <mxPoint x="240" y="450" as="targetPoint" />
          </mxGeometry>
        </mxCell>
        <mxCell id="hOvcuM3Gdlnbof2sq8FK-37" value="" style="endArrow=none;html=1;rounded=0;fontColor=#FFFFFF;entryX=0;entryY=0.5;entryDx=0;entryDy=0;" parent="1" target="hOvcuM3Gdlnbof2sq8FK-23" edge="1">
          <mxGeometry width="50" height="50" relative="1" as="geometry">
            <mxPoint x="72.5" y="310" as="sourcePoint" />
            <mxPoint x="217.5" y="280" as="targetPoint" />
          </mxGeometry>
        </mxCell>
        <mxCell id="hOvcuM3Gdlnbof2sq8FK-38" value="" style="endArrow=none;html=1;rounded=0;fontColor=#FFFFFF;entryX=0;entryY=0.5;entryDx=0;entryDy=0;" parent="1" target="hOvcuM3Gdlnbof2sq8FK-28" edge="1">
          <mxGeometry width="50" height="50" relative="1" as="geometry">
            <mxPoint x="70" y="310" as="sourcePoint" />
            <mxPoint x="205" y="360" as="targetPoint" />
          </mxGeometry>
        </mxCell>
        <mxCell id="hOvcuM3Gdlnbof2sq8FK-43" value="" style="endArrow=none;html=1;rounded=0;fontColor=#FFFFFF;entryX=0;entryY=0.5;entryDx=0;entryDy=0;" parent="1" target="hOvcuM3Gdlnbof2sq8FK-18" edge="1">
          <mxGeometry width="50" height="50" relative="1" as="geometry">
            <mxPoint x="170" y="210" as="sourcePoint" />
            <mxPoint x="210" y="240" as="targetPoint" />
          </mxGeometry>
        </mxCell>
      </root>
    </mxGraphModel>
  </diagram>
</mxfile>
